<svg width="16" height="16" viewBox="0 0 16 16" fill="none" xmlns="http://www.w3.org/2000/svg">
<path d="M4.81111 4.11106C4.81111 2.34905 6.23799 0.922168 8 0.922168C9.76201 0.922168 11.1889 2.34904 11.1889 4.11106C11.1889 5.87307 9.76201 7.29995 8 7.29995C6.23799 7.29995 4.81111 5.87307 4.81111 4.11106ZM0.922223 12.8611C0.922223 12.4716 1.11175 12.0787 1.54722 11.6768C1.98745 11.2705 2.63072 10.904 3.39798 10.5966C4.93363 9.98144 6.78959 9.67217 8 9.67217C9.21041 9.67217 11.0664 9.98144 12.602 10.5966C13.3693 10.904 14.0126 11.2705 14.4528 11.6768C14.8883 12.0787 15.0778 12.4716 15.0778 12.8611V15.0777H0.922223V12.8611Z" stroke="#C2CFE0" stroke-width="1.4"/>
</svg>
